#!OML:ASF F:\VICON\USERDATA\INSTALL\rory3\rory3.ASF
:FULLY-SPECIFIED
:DEGREES
335
root -3.20513 16.8863 -20.7594 163.157 -72.2878 -511.822
lowerback -7.96018 -5.54177 0.0284675
upperback -6.35943 -7.69733 0.810496
thorax -2.05122 -3.98249 0.358285
lowerneck -11.125 -6.31092 -15.3417
upperneck 27.8784 -11.0239 13.7855
head 12.7339 -5.52793 6.22543
rclavicle -2.14687e-014 -4.6118e-014
rhumerus -52.826 -0.712731 -84.6422
rradius 26.0407
rwrist 8.59406
rhand -21.8716 -51.4412
rfingers 7.12502
rthumb 4.53276 -81.3727
lclavicle -2.14687e-014 -4.6118e-014
lhumerus -16.1568 -10.8165 44.4996
lradius 68.0327
lwrist 9.41483
lhand -41.5172 318.163
lfingers 7.12502
lthumb -14.43 -12.3582
rfemur -37.8318 -4.60079 36.4942
rtibia 43.7279
rfoot -13.3837 -21.195
rtoes 10.3006
lfemur -19.7248 29.6932 -2.76006
ltibia 53.5155
lfoot -25.43 35.9343
ltoes 23.3463
336
root -3.26277 16.8983 -20.8812 166.007 -70.8825 -514.875
lowerback -8.4239 -5.43138 -0.045654
upperback -6.40583 -7.55887 0.853782
thorax -1.8316 -3.91678 0.402978
lowerneck -10.7922 -6.31242 -14.3859
upperneck 27.8001 -11.098 13.0681
head 12.5278 -5.55923 5.75168
rclavicle -3.08116e-014 -1.51076e-014
rhumerus -52.0392 0.0409158 -85.083
rradius 25.9952
rwrist 8.12464
rhand -22.1642 -51.6682
rfingers 7.12502
rthumb 4.25022 -81.6056
lclavicle -3.08116e-014 -1.51076e-014
lhumerus -17.0746 -10.1305 44.8539
lradius 68.5972
lwrist 9.67806
lhand -41.7505 317.495
lfingers 7.12502
lthumb -14.6548 -13.0426
rfemur -37.1704 -3.49575 36.3568
rtibia 43.8223
rfoot -13.5348 -20.8867
rtoes 9.24902
lfemur -18.5586 28.6447 -2.42698
ltibia 53.6672
lfoot -26.3706 34.4967
ltoes 26.795
337
root -3.31381 16.8842 -21.0223 166.11 -69.3714 -515.355
lowerback -8.69988 -5.31103 0.13742
upperback -6.22429 -7.40298 1.21936
thorax -1.46574 -3.83565 0.642696
lowerneck -10.8207 -6.24116 -14.5111
upperneck 27.8236 -11.0213 13.1805
head 12.5449 -5.53297 5.83144
rclavicle 1.78906e-014 2.06736e-014
rhumerus -51.1564 -0.0770131 -84.7889
rradius 26.0351
rwrist 8.37458
rhand -22.1615 -51.5752
rfingers 7.12502
rthumb 4.25283 -81.5125
lclavicle 1.78906e-014 2.06736e-014
lhumerus -17.7096 -9.26049 45.4565
lradius 69.0111
lwrist 9.80222
lhand -41.7027 316.904
lfingers 7.12502
lthumb -14.6087 -13.6309
rfemur -36.1776 -1.97473 36.9645
rtibia 43.9882
rfoot -13.8905 -21.0428
rtoes 8.91322
lfemur -17.1194 28.2585 -0.771084
ltibia 53.9758
lfoot -24.6789 32.8939
ltoes 22.9878
338
root -3.36153 16.8817 -21.1055 171.972 -68.4882 -521.162
lowerback -9.4697 -5.18956 -0.626682
upperback -6.43632 -7.21734 0.65431
thorax -1.25285 -3.74423 0.430585
lowerneck -10.8633 -6.15554 -14.7538
upperneck 27.988 -10.9969 13.4945
head 12.6533 -5.53073 6.01047
rclavicle -4.47266e-014 -1.27222e-014
rhumerus -50.5263 -0.143126 -84.9897
rradius 26.1125
rwrist 8.83433
rhand -20.7096 -51.2286
rfingers 7.12502
rthumb 5.65473 -81.1331
lclavicle -4.47266e-014 -1.27222e-014
lhumerus -18.3746 -8.82545 45.75
lradius 69.5054
lwrist 9.81943
lhand -41.7099 316.577
lfingers 7.12502
lthumb -14.6157 -13.9577
rfemur -36.4014 -1.73879 35.4139
rtibia 44.3311
rfoot -14.0629 -20.044
rtoes 7.77134
lfemur -16.6147 28.2388 -2.18363
ltibia 54.1395
lfoot -22.0123 31.1627
ltoes 22.2153
339
root -3.40236 16.8571 -21.1979 175.048 -67.3416 -524.388
lowerback -9.93677 -5.04908 -1.03041
upperback -6.52029 -7.01374 0.413398
thorax -1.07418 -3.64355 0.380191
lowerneck -10.3018 -6.25614 -13.5997
upperneck 27.6732 -11.1282 12.4575
head 12.2805 -5.59842 5.36632
rclavicle -5.76476e-014 -1.98785e-014
rhumerus -49.9646 -0.0470977 -85.2127
rradius 26.3845
rwrist 9.36597
rhand -21.544 -50.5713
rfingers 7.12502
rthumb 4.84904 -80.4958
lclavicle -5.76476e-014 -1.98785e-014
lhumerus -18.9996 -8.36814 46.1834
lradius 69.7165
lwrist 9.10271
lhand -41.3297 315.647
lfingers 7.12502
lthumb -14.2494 -14.8617
rfemur -36.2605 -1.4168 34.7551
rtibia 44.662
rfoot -14.3106 -19.3098
rtoes 6.77276
lfemur -15.8983 28.8914 -2.37719
ltibia 54.5231
lfoot -18.0442 29.1339
ltoes 18.4291
340
root -3.43523 16.8537 -21.3017 176.725 -66.1214 -526.37
lowerback -10.1151 -4.97044 -1.3228
upperback -6.46518 -6.88443 0.372498
thorax -0.894184 -3.57294 0.487849
lowerneck -9.77196 -6.2432 -13.0793
upperneck 27.21 -11.1138 12.0809
head 11.9226 -5.59645 5.12869
rclavicle 8.94531e-015 1.11319e-014
rhumerus -49.2113 -0.00737183 -85.4012
rradius 26.8414
rwrist 9.44331
rhand -21.2969 -49.8904
rfingers 7.12502
rthumb 5.08772 -79.8093
lclavicle 8.94531e-015 1.11319e-014
lhumerus -19.6154 -8.37546 46.8611
lradius 70.0832
lwrist 9.77438
lhand -43.0937 315.261
lfingers 7.12502
lthumb -15.9485 -15.3756
rfemur -35.8331 -0.916516 34.4646
rtibia 44.9652
rfoot -15.0286 -18.5692
rtoes 7.3965
lfemur -15.2145 27.7844 -2.58637
ltibia 54.9792
lfoot -16.1133 28.1698
ltoes 15.5627
341
root -3.45825 16.862 -21.4146 177.784 -64.7693 -527.948
lowerback -9.94204 -4.9208 -1.65321
upperback -6.3181 -6.78203 0.423722
thorax -0.79324 -3.50738 0.73685
lowerneck -9.57873 -5.83024 -14.039
upperneck 26.865 -10.6635 13.3135
head 11.8105 -5.37866 5.8479
rclavicle 5.76476e-015 1.74931e-014
rhumerus -48.2617 0.317779 -85.7627
rradius 27.2906
rwrist 8.92505
rhand -20.5181 -49.6073
rfingers 7.12502
rthumb 5.83963 -79.5069
lclavicle 5.76476e-015 1.74931e-014
lhumerus -20.3712 -8.39935 47.2815
lradius 70.6641
lwrist 9.74438
lhand -43.0794 315.616
lfingers 7.12502
lthumb -15.9348 -15.0197
rfemur -34.9494 0.80391 34.0928
rtibia 45.0479
rfoot -15.9163 -18.6456
rtoes 9.62913
lfemur -14.414 26.3248 -2.6688
ltibia 55.6187
lfoot -15.5031 27.4665
ltoes 14.6209
342
root -3.48093 16.847 -21.5081 178.193 -63.6914 -528.785
lowerback -9.74553 -4.93361 -1.58301
upperback -6.14828 -6.79201 0.559987
thorax -0.712786 -3.50655 0.84462
lowerneck -9.47149 -5.88339 -13.1364
upperneck 26.579 -10.5628 12.2616
head 11.5392 -5.33868 5.28596
rclavicle -6.36111e-014 -2.78299e-014
rhumerus -47.2523 0.529629 -85.9027
rradius 27.7568
rwrist 8.94765
rhand -20.1885 -49.6752
rfingers 7.12502
rthumb 6.15782 -79.5657
lclavicle -6.36111e-014 -2.78299e-014
lhumerus -20.9159 -7.99834 47.9752
lradius 70.8182
lwrist 9.56449
lhand -43.3503 315.2
lfingers 7.12502
lthumb -16.1957 -15.4568
rfemur -34.1908 1.80169 34.0519
rtibia 45.0641
rfoot -16.4587 -18.5263
rtoes 10.5896
lfemur -13.8443 26.4386 -2.08279
ltibia 56.4807
lfoot -15.0395 25.3561
ltoes 14.5839
343
root -3.51086 16.829 -21.5927 177.985 -62.6966 -528.935
lowerback -9.60442 -4.8834 -1.07948
upperback -5.91924 -6.74674 0.739913
thorax -0.584295 -3.48695 0.757193
lowerneck -9.4794 -5.94694 -13.1121
upperneck 26.3528 -10.5765 12.1173
head 11.4461 -5.34922 5.21722
rclavicle -2.95195e-014 7.95139e-016
rhumerus -46.2399 0.520961 -85.8876
rradius 28.3167
rwrist 9.22255
rhand -20.6509 -49.4024
rfingers 7.12502
rthumb 5.71143 -79.3055
lclavicle -2.95195e-014 7.95139e-016
lhumerus -21.2278 -7.64236 48.9855
lradius 70.9571
lwrist 10.0248
lhand -44.5187 316.252
lfingers 7.12502
lthumb -17.3205 -14.4997
rfemur -33.373 1.99827 34.4305
rtibia 44.9606
rfoot -16.6001 -18.1032
rtoes 9.95613
lfemur -13.4605 25.859 -1.51171
ltibia 57.4985
lfoot -15.6378 23.8779
ltoes 15.293
